<svg width="2000" height="1000" viewBox="0 0 2000 1000" fill="none" xmlns="http://www.w3.org/2000/svg">
<rect width="2000" height="1000" fill="url(#paint0_radial_2031_1398)"/>
<path d="M1120.2 670.327C1110.7 721.827 1084.7 740.826 1042.2 766.326C1023.65 777.456 1078.2 799.326 1057.2 800.826C1036.2 802.326 994.7 795.826 956.2 775.326C917.7 754.826 865.2 706.327 890.7 620.327C916.2 534.327 994.2 534.827 1043.7 541.827C1093.2 548.827 1129.7 618.827 1120.2 670.327Z" fill="#FED72E"/>
<circle cx="964.699" cy="643.826" r="7" fill="#070000"/>
<circle cx="1050.7" cy="641.826" r="7" fill="#070000"/>
<circle cx="1064.7" cy="664.826" r="16" fill="#EE4B70"/>
<circle cx="946.699" cy="664.826" r="16" fill="#EE4B70"/>
<path d="M1008.2 674.827C986.699 675.327 981.699 653.327 979.199 653.827C974.199 653.827 982.199 685.326 1009.2 682.326C1036.2 679.326 1037.7 653.827 1033.7 653.827C1029.7 653.827 1029.7 674.327 1008.2 674.827Z" fill="#000500"/>
<path d="M1313.76 617.862C1291.26 666.862 1310 707.862 1316.5 718.862C1311.74 737 1301 733.5 1285 736C1279.7 736.828 1311.24 759.139 1335.5 751.5C1344.5 764.833 1380.74 779.139 1416.5 777C1470.3 773.783 1499.74 740.138 1509.5 714.5C1524.38 675.422 1523.76 611.862 1468.26 579.362C1412.76 546.862 1336.26 568.862 1313.76 617.862Z" fill="#76C2D6"/>
<path d="M1384.47 661C1384.47 655.5 1378.47 654.5 1365.47 656C1356.47 656.629 1351.47 659 1352.97 664C1354.47 669 1359.97 667.5 1367.97 667C1375.97 666.5 1384.47 666.5 1384.47 661Z" fill="#000306"/>
<path d="M1468.24 655.629C1468.24 650.129 1462.24 649.129 1449.24 650.629C1440.24 651.258 1435.24 653.629 1436.74 658.629C1438.24 663.629 1443.74 662.129 1451.74 661.629C1459.74 661.129 1468.24 661.129 1468.24 655.629Z" fill="#000306"/>
<path d="M1446.97 682.491C1446.97 674.484 1422.97 674.499 1409.97 675.999C1400.97 676.628 1378.33 678.259 1379.74 686.62C1380.72 692.5 1394.97 688.656 1413.47 687.5C1436.97 686.031 1446.97 689 1446.97 682.491Z" fill="#000306"/>
<path d="M650.499 756.988C616.099 776.588 577.166 772.154 561.999 767.488C541.5 793 507.5 785 516.5 781C525.5 777 530 767.5 530.5 759C517.502 750.512 510.5 741 497.999 720.488C471.25 676.597 469.499 621.488 510.999 578.488C552.499 535.488 650.499 539.488 687.499 601.988C724.499 664.488 693.499 732.488 650.499 756.988Z" fill="#F74F4F"/>
<path d="M591.28 670.325C571.002 669.923 563.068 692.911 560.541 692.059C555.909 691.633 566.858 664.358 590.859 663.506C614.861 662.654 626.651 692.91 621.177 692.484C615.703 692.058 612.756 670.751 591.28 670.325Z" fill="#000104"/>
<path d="M572 657.988C569.5 660.488 561.5 656.988 552.5 651.488C549 649.321 542.6 644.388 545 641.988C548 638.988 556 642.488 561 645.988C566 649.488 574.5 655.488 572 657.988Z" fill="#070000"/>
<path d="M611.967 657.631C614.467 660.131 622.467 656.631 631.467 651.131C634.967 648.964 640.017 645.527 638.501 642.491C637.501 640.488 628.5 643.49 623.5 646.99C618.5 650.49 609.467 655.131 611.967 657.631Z" fill="#070000"/>
<circle cx="556.5" cy="658.488" r="8" fill="#070000"/>
<circle r="8" transform="matrix(-1 0 0 1 627.451 658.125)" fill="#070000"/>
<path d="M796.451 888.344C796.372 887.599 796.036 887.02 795.445 886.605C794.86 886.19 794.099 885.983 793.161 885.983C792.502 885.983 791.937 886.082 791.465 886.281C790.994 886.48 790.633 886.75 790.383 887.091C790.133 887.432 790.005 887.821 789.999 888.259C789.999 888.622 790.082 888.937 790.247 889.205C790.417 889.472 790.647 889.699 790.937 889.886C791.227 890.068 791.548 890.222 791.9 890.347C792.252 890.472 792.607 890.577 792.965 890.662L794.602 891.071C795.261 891.224 795.894 891.432 796.502 891.693C797.116 891.955 797.664 892.284 798.147 892.682C798.636 893.08 799.022 893.56 799.306 894.122C799.59 894.685 799.732 895.344 799.732 896.099C799.732 897.122 799.471 898.023 798.948 898.801C798.426 899.574 797.67 900.179 796.681 900.616C795.698 901.048 794.508 901.264 793.11 901.264C791.752 901.264 790.573 901.054 789.573 900.634C788.579 900.213 787.801 899.599 787.238 898.793C786.681 897.986 786.38 897.003 786.335 895.844H789.445C789.491 896.452 789.678 896.957 790.008 897.361C790.337 897.764 790.766 898.065 791.295 898.264C791.829 898.463 792.426 898.562 793.085 898.562C793.772 898.562 794.374 898.46 794.891 898.256C795.414 898.045 795.823 897.756 796.119 897.386C796.414 897.011 796.565 896.574 796.57 896.074C796.565 895.619 796.431 895.244 796.17 894.949C795.909 894.648 795.542 894.398 795.07 894.199C794.605 893.994 794.059 893.812 793.434 893.653L791.448 893.142C790.011 892.773 788.874 892.213 788.039 891.463C787.21 890.707 786.795 889.705 786.795 888.455C786.795 887.426 787.073 886.526 787.63 885.753C788.193 884.98 788.957 884.381 789.923 883.955C790.889 883.523 791.982 883.307 793.204 883.307C794.443 883.307 795.528 883.523 796.46 883.955C797.397 884.381 798.133 884.974 798.667 885.736C799.201 886.491 799.477 887.361 799.494 888.344H796.451ZM812.151 901V883.545H823.504V886.196H815.313V890.935H822.915V893.585H815.313V898.349H823.572V901H812.151ZM850.673 883.545V901H847.861L839.636 889.111H839.491V901H836.329V883.545H839.159L847.375 895.443H847.528V883.545H850.673ZM862.951 886.196V883.545H876.878V886.196H871.483V901H868.346V886.196H862.951ZM892.324 883.545V901H889.162V883.545H892.324ZM905.348 883.545H909.217L914.399 896.193H914.604L919.786 883.545H923.655V901H920.621V889.009H920.459L915.635 900.949H913.368L908.544 888.983H908.382V901H905.348V883.545ZM936.698 901V883.545H948.05V886.196H939.86V890.935H947.462V893.585H939.86V898.349H948.119V901H936.698ZM975.22 883.545V901H972.408L964.183 889.111H964.038V901H960.876V883.545H963.706L971.922 895.443H972.075V883.545H975.22ZM987.498 886.196V883.545H1001.42V886.196H996.03V901H992.893V886.196H987.498ZM1031.5 901H1028.13L1034.27 883.545H1038.18L1044.33 901H1040.96L1036.29 887.125H1036.16L1031.5 901ZM1031.61 894.156H1040.82V896.696H1031.61V894.156ZM1070.57 883.545V901H1067.76L1059.54 889.111H1059.39V901H1056.23V883.545H1059.06L1067.27 895.443H1067.43V883.545H1070.57ZM1085.86 901H1082.48L1088.63 883.545H1092.53L1098.69 901H1095.31L1090.65 887.125H1090.51L1085.86 901ZM1085.97 894.156H1095.18V896.696H1085.97V894.156ZM1110.59 901V883.545H1113.75V898.349H1121.44V901H1110.59ZM1130.83 883.545H1134.4L1138.67 891.267H1138.84L1143.11 883.545H1146.68L1140.33 894.489V901H1137.18V894.489L1130.83 883.545ZM1168.01 888.344C1167.93 887.599 1167.59 887.02 1167 886.605C1166.41 886.19 1165.65 885.983 1164.72 885.983C1164.06 885.983 1163.49 886.082 1163.02 886.281C1162.55 886.48 1162.19 886.75 1161.94 887.091C1161.69 887.432 1161.56 887.821 1161.55 888.259C1161.55 888.622 1161.64 888.937 1161.8 889.205C1161.97 889.472 1162.2 889.699 1162.49 889.886C1162.78 890.068 1163.1 890.222 1163.45 890.347C1163.81 890.472 1164.16 890.577 1164.52 890.662L1166.16 891.071C1166.82 891.224 1167.45 891.432 1168.06 891.693C1168.67 891.955 1169.22 892.284 1169.7 892.682C1170.19 893.08 1170.58 893.56 1170.86 894.122C1171.15 894.685 1171.29 895.344 1171.29 896.099C1171.29 897.122 1171.03 898.023 1170.5 898.801C1169.98 899.574 1169.22 900.179 1168.24 900.616C1167.25 901.048 1166.06 901.264 1164.66 901.264C1163.31 901.264 1162.13 901.054 1161.13 900.634C1160.13 900.213 1159.36 899.599 1158.79 898.793C1158.24 897.986 1157.93 897.003 1157.89 895.844H1161C1161.05 896.452 1161.23 896.957 1161.56 897.361C1161.89 897.764 1162.32 898.065 1162.85 898.264C1163.38 898.463 1163.98 898.562 1164.64 898.562C1165.33 898.562 1165.93 898.46 1166.45 898.256C1166.97 898.045 1167.38 897.756 1167.67 897.386C1167.97 897.011 1168.12 896.574 1168.13 896.074C1168.12 895.619 1167.99 895.244 1167.72 894.949C1167.46 894.648 1167.1 894.398 1166.63 894.199C1166.16 893.994 1165.61 893.812 1164.99 893.653L1163 893.142C1161.57 892.773 1160.43 892.213 1159.59 891.463C1158.76 890.707 1158.35 889.705 1158.35 888.455C1158.35 887.426 1158.63 886.526 1159.18 885.753C1159.75 884.98 1160.51 884.381 1161.48 883.955C1162.44 883.523 1163.54 883.307 1164.76 883.307C1166 883.307 1167.08 883.523 1168.01 883.955C1168.95 884.381 1169.69 884.974 1170.22 885.736C1170.76 886.491 1171.03 887.361 1171.05 888.344H1168.01ZM1186.87 883.545V901H1183.71V883.545H1186.87ZM1209.38 888.344C1209.3 887.599 1208.96 887.02 1208.37 886.605C1207.79 886.19 1207.03 885.983 1206.09 885.983C1205.43 885.983 1204.86 886.082 1204.39 886.281C1203.92 886.48 1203.56 886.75 1203.31 887.091C1203.06 887.432 1202.93 887.821 1202.93 888.259C1202.93 888.622 1203.01 888.937 1203.17 889.205C1203.34 889.472 1203.57 889.699 1203.86 889.886C1204.15 890.068 1204.47 890.222 1204.83 890.347C1205.18 890.472 1205.53 890.577 1205.89 890.662L1207.53 891.071C1208.19 891.224 1208.82 891.432 1209.43 891.693C1210.04 891.955 1210.59 892.284 1211.07 892.682C1211.56 893.08 1211.95 893.56 1212.23 894.122C1212.52 894.685 1212.66 895.344 1212.66 896.099C1212.66 897.122 1212.4 898.023 1211.87 898.801C1211.35 899.574 1210.6 900.179 1209.61 900.616C1208.62 901.048 1207.43 901.264 1206.04 901.264C1204.68 901.264 1203.5 901.054 1202.5 900.634C1201.51 900.213 1200.73 899.599 1200.16 898.793C1199.61 897.986 1199.31 897.003 1199.26 895.844H1202.37C1202.42 896.452 1202.6 896.957 1202.93 897.361C1203.26 897.764 1203.69 898.065 1204.22 898.264C1204.76 898.463 1205.35 898.562 1206.01 898.562C1206.7 898.562 1207.3 898.46 1207.82 898.256C1208.34 898.045 1208.75 897.756 1209.05 897.386C1209.34 897.011 1209.49 896.574 1209.5 896.074C1209.49 895.619 1209.36 895.244 1209.1 894.949C1208.84 894.648 1208.47 894.398 1208 894.199C1207.53 893.994 1206.99 893.812 1206.36 893.653L1204.37 893.142C1202.94 892.773 1201.8 892.213 1200.97 891.463C1200.14 890.707 1199.72 889.705 1199.72 888.455C1199.72 887.426 1200 886.526 1200.56 885.753C1201.12 884.98 1201.88 884.381 1202.85 883.955C1203.82 883.523 1204.91 883.307 1206.13 883.307C1207.37 883.307 1208.45 883.523 1209.39 883.955C1210.32 884.381 1211.06 884.974 1211.59 885.736C1212.13 886.491 1212.4 887.361 1212.42 888.344H1209.38Z" fill="white"/>
<rect x="732" y="184.988" width="96.6422" height="12.0225" fill="white"/>
<rect x="841.59" y="184.988" width="96.6422" height="12.0225" fill="#FED72E"/>
<rect x="951.18" y="184.988" width="96.6422" height="12.0225" fill="#F74F4F"/>
<rect x="1060.77" y="184.988" width="96.6422" height="12.0225" fill="white"/>
<rect x="1170.36" y="184.988" width="96.6422" height="12.0225" fill="#76C2D6"/>
<rect x="732" y="227" width="96.6422" height="12.0225" fill="#F74F4F"/>
<rect x="841.59" y="227" width="96.6422" height="12.0225" fill="white"/>
<rect x="951.18" y="227" width="96.6422" height="12.0225" fill="#FED72E"/>
<rect x="1060.77" y="227" width="96.6422" height="12.0225" fill="white"/>
<rect x="1170.36" y="227" width="96.6422" height="12.0225" fill="white"/>
<rect x="732" y="269.012" width="96.6422" height="12.0225" fill="#FED72E"/>
<rect x="841.59" y="269.012" width="96.6422" height="12.0225" fill="#76C2D6"/>
<rect x="951.18" y="269.012" width="96.6422" height="12.0225" fill="white"/>
<rect x="1060.77" y="269.012" width="96.6422" height="12.0225" fill="#F74F4F"/>
<rect x="1170.36" y="269.012" width="96.6422" height="12.0225" fill="white"/>
<path d="M1419 484.609V426.312L992 429.375M565 490V432.438L992 429.375M992 429.375V355M992 429.375V484.609" stroke="white" stroke-width="6" stroke-miterlimit="10"/>
<rect x="680.5" y="118.5" width="637" height="236" stroke="white"/>
<defs>
<radialGradient id="paint0_radial_2031_1398" cx="0" cy="0" r="1" gradientUnits="userSpaceOnUse" gradientTransform="translate(1000 500) rotate(30.1369) scale(897.288 1794.58)">
<stop offset="0.0497905" stop-color="#2324C8"/>
<stop offset="1" stop-color="#2526A0"/>
</radialGradient>
</defs>
</svg>
